<svg t="1690883655533" class="icon" viewBox="0 0 1024 1024" version="1.1" xmlns="http://www.w3.org/2000/svg" p-id="2422" width="200" height="200"><path d="M704.292571 573.696l2.304 2.230857 4.022858 4.571429c10.605714 10.788571 24.978286 17.408 40.740571 17.408 13.824 0 26.477714-5.010286 36.571429-13.421715l4.132571-3.803428 4.169143-4.754286a23.259429 23.259429 0 0 1 24.027428-6.217143s6.838857 2.706286 22.637715 12.434286c15.762286 9.728 21.321143 14.811429 21.321143 14.811429 5.339429 4.790857 8.411429 13.897143 7.643428 21.613714l-0.731428 3.730286-1.682286 5.924571a66.925714 66.925714 0 0 0 6.290286 46.555429c6.838857 12.726857 17.261714 21.979429 29.110857 27.062857l5.12 1.974857 5.961143 1.462857c7.972571 1.901714 15.652571 10.496 17.078857 19.017143 0 0 1.316571 7.606857 1.206857 26.989714 0 19.492571-1.28 27.136-1.28 27.136a26.038857 26.038857 0 0 1-14.116572 18.029714l-2.925714 1.024-5.668571 1.389715a59.977143 59.977143 0 0 0-34.56 29.110857 66.925714 66.925714 0 0 0-7.387429 40.594286l1.024 5.778285 1.792 6.107429a27.136 27.136 0 0 1-6.948571 25.344s-5.558857 5.083429-21.357715 14.811428c-15.762286 9.728-22.637714 12.434286-22.637714 12.434286-6.692571 2.633143-15.798857 0.768-21.686857-4.022857l-2.304-2.194286-3.949714-4.498285a56.905143 56.905143 0 0 0-40.850286-17.481143c-13.897143 0-26.587429 5.083429-36.681143 13.531428l-4.132571 3.876572-3.949715 4.571428a23.259429 23.259429 0 0 1-24.027428 6.217143s-6.838857-2.706286-22.637714-12.434286a184.32 184.32 0 0 1-20.626286-14.226285l-0.731429-0.585143c-5.302857-4.790857-8.374857-13.897143-7.606857-21.613714l0.731429-3.730286 1.682285-5.924572a66.925714 66.925714 0 0 0-6.290285-46.555428 60.416 60.416 0 0 0-29.366857-27.172572l-5.193143-1.938285-5.632-1.389715c-7.972571-1.901714-15.652571-10.496-17.078857-19.017142 0 0-1.316571-7.68-1.316572-27.172572 0-19.456 1.316571-27.136 1.316572-27.136 1.243429-7.460571 7.314286-14.994286 14.116571-18.029714l2.925714-1.024 5.741715-1.389714c14.08-4.461714 26.587429-14.372571 34.486857-29.037715 6.912-12.8 9.142857-27.062857 7.314285-40.667428l-1.024-5.778286-1.718857-6.034286a27.136 27.136 0 0 1 6.948572-25.307428l1.609143-1.353143c2.633143-2.084571 8.667429-6.582857 19.748571-13.385143 15.762286-9.728 22.601143-12.434286 22.601143-12.434286 6.692571-2.633143 15.872-0.768 21.723428 4.022857z m89.344-463.872c30.646857 0 56.100571 23.771429 58.843429 53.76l0.219429 5.339429v341.101714a50.066286 50.066286 0 0 0-15.872-2.56c-13.165714 0-26.112 4.754286-35.474286 12.690286l-3.730286 3.620571-4.717714 5.12a51.675429 51.675429 0 0 1-65.865143 3.437714l-4.278857-3.547428-4.498286-4.827429a53.979429 53.979429 0 0 0-55.844571-13.604571c-1.353143 0.438857-7.826286 2.925714-20.516572 9.728l-5.083428 2.779428-96.036572-228.790857c-11.264-27.574857-17.005714-36.388571-21.430857-41.069714a51.2 51.2 0 0 0-40.96-17.627429 49.700571 49.700571 0 0 0-41.472 19.675429c-3.474286 4.132571-8.594286 11.958857-17.700571 33.353143l-2.56 6.180571v0.182857l-127.305143 316.342857c-5.339429 10.971429-8.521143 22.857143-9.508572 35.035429 0.146286 9.654857 3.657143 18.870857 9.801143 26.185143l3.291429 3.510857 0.621714 0.402286c8.484571 7.899429 19.748571 12.288 31.305143 12.214857 12.909714 0.512 25.234286-5.046857 33.28-15.067429 4.059429-5.010286 8.082286-12.434286 12.726857-23.771428l2.340572-6.034286 29.988571-77.933714h153.856l27.538286 67.181714a51.309714 51.309714 0 0 1-29.293715 34.121143l-5.229714 1.938286-6.436571 1.426285c-19.382857 4.498286-36.059429 21.942857-39.643429 41.581715-0.402286 1.828571-2.048 12.397714-2.048 36.461714 0 24.064 1.755429 34.596571 2.048 36.461714 3.291429 17.92 17.517714 34.121143 34.852572 40.082286l4.790857 1.389714 6.363428 1.462857c9.728 2.925714 18.176 8.630857 24.539429 16.384l2.998857 4.059429H168.923429c-30.683429 0-56.137143-23.771429-58.88-53.76l-0.219429-5.339429V168.96c0-30.683429 23.771429-56.137143 53.76-58.88l5.339429-0.219429H793.6z m-42.276571 568.393143a73.142857 73.142857 0 1 0 0 146.285714 73.142857 73.142857 0 0 0 0-146.285714z m-273.078857-311.661714l47.323428 118.198857h-92.781714l45.458286-118.198857z" fill="#1296db" p-id="2423"></path></svg>